<svg width="22" height="22" viewBox="0 0 22 22" fill="none" xmlns="http://www.w3.org/2000/svg">
<path fill-rule="evenodd" clip-rule="evenodd" d="M18 8C20.2091 8 22 6.20914 22 4C22 1.79086 20.2091 0 18 0C15.7909 0 14 1.79086 14 4C14 4.28739 14.0303 4.5677 14.0879 4.83791L7.01688 8.37342C6.28357 7.53186 5.2039 7 4 7C1.79086 7 0 8.79086 0 11C0 13.2091 1.79086 15 4 15C5.32802 15 6.50488 14.3528 7.23241 13.3566L14.1009 17.1031C14.0349 17.3914 14 17.6916 14 18C14 20.2091 15.7909 22 18 22C20.2091 22 22 20.2091 22 18C22 15.7909 20.2091 14 18 14C16.8179 14 15.7556 14.5128 15.0233 15.328L7.97132 11.4815C7.99025 11.3236 8 11.163 8 11C8 10.7125 7.96968 10.4322 7.91206 10.1619L14.983 6.62643C15.7163 7.46808 16.796 8 18 8ZM18 6C19.1046 6 20 5.10457 20 4C20 2.89543 19.1046 2 18 2C16.8954 2 16 2.89543 16 4C16 5.10457 16.8954 6 18 6ZM4 13C5.10457 13 6 12.1046 6 11C6 9.89543 5.10457 9 4 9C2.89543 9 2 9.89543 2 11C2 12.1046 2.89543 13 4 13ZM20 18C20 19.1046 19.1046 20 18 20C16.8954 20 16 19.1046 16 18C16 16.8954 16.8954 16 18 16C19.1046 16 20 16.8954 20 18Z" fill="#100E20"/>
</svg>
