<svg width="20" height="16" viewBox="0 0 20 16" fill="none" xmlns="http://www.w3.org/2000/svg">
<path d="M4.09433 2.1205C4.41905 1.79435 4.41788 1.26671 4.09173 0.941994C3.76557 0.617278 3.23793 0.618445 2.91322 0.944601C1.11371 2.75209 0 5.24674 0 7.99992C0 10.7511 1.11213 13.2442 2.90939 15.0514C3.23393 15.3777 3.76156 15.3792 4.08789 15.0546C4.41423 14.7301 4.41568 14.2025 4.09114 13.8761C2.59179 12.3685 1.66667 10.2931 1.66667 7.99992C1.66667 5.70516 2.5931 3.62839 4.09433 2.1205Z" fill="white"/>
<path d="M17.0868 0.944601C16.7621 0.618445 16.2344 0.617278 15.9083 0.941994C15.5821 1.26671 15.581 1.79435 15.9057 2.1205C17.4069 3.62839 18.3333 5.70516 18.3333 7.99992C18.3333 10.3024 17.4006 12.3855 15.8904 13.8946C15.5648 14.2199 15.5647 14.7476 15.89 15.0731C16.2153 15.3987 16.7429 15.3989 17.0685 15.0736C18.8787 13.2646 20 10.7624 20 7.99992C20 5.24674 18.8863 2.75209 17.0868 0.944601Z" fill="white"/>
<path d="M13.5195 3.24346C13.8453 2.91833 14.3729 2.91883 14.6981 3.24457C15.9138 4.46264 16.6667 6.15182 16.6667 8.01547C16.6667 9.86107 15.9283 11.5356 14.7332 12.7509C14.4105 13.0791 13.8828 13.0835 13.5547 12.7608C13.2266 12.4381 13.2222 11.9104 13.5449 11.5823C14.4442 10.6678 15 9.40873 15 8.01547C15 6.60865 14.4333 5.3386 13.5184 4.42197C13.1933 4.09623 13.1938 3.56859 13.5195 3.24346Z" fill="white"/>
<path d="M6.42723 3.28406C6.75661 3.60551 6.76303 4.13311 6.44158 4.46248C5.55019 5.37585 5 6.62921 5 8.01547C5 9.40641 5.55392 10.6636 6.45064 11.5777C6.77294 11.9063 6.76786 12.4339 6.43931 12.7562C6.11076 13.0785 5.58314 13.0734 5.26085 12.7448C4.06921 11.5301 3.33333 9.85798 3.33333 8.01547C3.33333 6.17918 4.06425 4.51216 5.24881 3.29841C5.57026 2.96903 6.09786 2.96261 6.42723 3.28406Z" fill="white"/>
<path fill-rule="evenodd" clip-rule="evenodd" d="M6.66667 7.99994C6.66667 6.15899 8.15905 4.66661 10 4.66661C11.8409 4.66661 13.3333 6.15899 13.3333 7.99994C13.3333 9.84089 11.8409 11.3333 10 11.3333C8.15905 11.3333 6.66667 9.84089 6.66667 7.99994ZM10 6.33327C9.07953 6.33327 8.33333 7.07946 8.33333 7.99994C8.33333 8.92041 9.07953 9.66661 10 9.66661C10.9205 9.66661 11.6667 8.92041 11.6667 7.99994C11.6667 7.07946 10.9205 6.33327 10 6.33327Z" fill="white"/>
</svg>
