<svg width="18" height="20" viewBox="0 0 18 20" fill="none" xmlns="http://www.w3.org/2000/svg">
<path fill-rule="evenodd" clip-rule="evenodd" d="M5.66663 4.16671C5.20639 4.16671 4.83329 4.5398 4.83329 5.00004V8.33337C4.83329 8.79361 5.20639 9.16671 5.66663 9.16671H9.83329C10.2935 9.16671 10.6666 8.79361 10.6666 8.33337V5.00004C10.6666 4.5398 10.2935 4.16671 9.83329 4.16671H5.66663ZM6.49996 7.50004V5.83337H8.99996V7.50004H6.49996Z" fill="white"/>
<path d="M4.83329 11.6667C4.83329 11.2065 5.20639 10.8334 5.66663 10.8334H12.3333C12.7935 10.8334 13.1666 11.2065 13.1666 11.6667C13.1666 12.1269 12.7935 12.5 12.3333 12.5H5.66663C5.20639 12.5 4.83329 12.1269 4.83329 11.6667Z" fill="white"/>
<path d="M5.66663 14.1667C5.20639 14.1667 4.83329 14.5398 4.83329 15C4.83329 15.4603 5.20639 15.8334 5.66663 15.8334H12.3333C12.7935 15.8334 13.1666 15.4603 13.1666 15C13.1666 14.5398 12.7935 14.1667 12.3333 14.1667H5.66663Z" fill="white"/>
<path fill-rule="evenodd" clip-rule="evenodd" d="M3.16663 0.833374C1.78591 0.833374 0.666626 1.95266 0.666626 3.33337V16.6667C0.666626 18.0474 1.78591 19.1667 3.16663 19.1667H14.8333C16.214 19.1667 17.3333 18.0474 17.3333 16.6667V3.33337C17.3333 1.95266 16.214 0.833374 14.8333 0.833374H3.16663ZM2.33329 3.33337C2.33329 2.87314 2.70639 2.50004 3.16663 2.50004H14.8333C15.2935 2.50004 15.6666 2.87314 15.6666 3.33337V16.6667C15.6666 17.1269 15.2935 17.5 14.8333 17.5H3.16663C2.70639 17.5 2.33329 17.1269 2.33329 16.6667V3.33337Z" fill="white"/>
</svg>
