<svg width="20" height="14" viewBox="0 0 20 14" fill="none" xmlns="http://www.w3.org/2000/svg">
<path fill-rule="evenodd" clip-rule="evenodd" d="M2.5 10.3334C2.03976 10.3334 1.66667 10.7065 1.66667 11.1667C1.66667 11.6269 2.03976 12 2.5 12C2.96024 12 3.33333 11.6269 3.33333 11.1667C3.33333 10.7065 2.96024 10.3334 2.5 10.3334ZM0 11.1667C0 9.78599 1.11929 8.66671 2.5 8.66671C3.88071 8.66671 5 9.78599 5 11.1667C5 12.5474 3.88071 13.6667 2.5 13.6667C1.11929 13.6667 0 12.5474 0 11.1667Z" fill="white"/>
<path fill-rule="evenodd" clip-rule="evenodd" d="M7.5 2.83337C7.03976 2.83337 6.66667 3.20647 6.66667 3.66671C6.66667 4.12694 7.03976 4.50004 7.5 4.50004C7.96024 4.50004 8.33333 4.12694 8.33333 3.66671C8.33333 3.20647 7.96024 2.83337 7.5 2.83337ZM5 3.66671C5 2.286 6.11929 1.16671 7.5 1.16671C8.88071 1.16671 10 2.286 10 3.66671C10 5.04742 8.88071 6.16671 7.5 6.16671C6.11929 6.16671 5 5.04742 5 3.66671Z" fill="white"/>
<path fill-rule="evenodd" clip-rule="evenodd" d="M12.5 8.66671C12.0398 8.66671 11.6667 9.0398 11.6667 9.50004C11.6667 9.96028 12.0398 10.3334 12.5 10.3334C12.9602 10.3334 13.3333 9.96028 13.3333 9.50004C13.3333 9.0398 12.9602 8.66671 12.5 8.66671ZM10 9.50004C10 8.11933 11.1193 7.00004 12.5 7.00004C13.8807 7.00004 15 8.11933 15 9.50004C15 10.8808 13.8807 12 12.5 12C11.1193 12 10 10.8808 10 9.50004Z" fill="white"/>
<path fill-rule="evenodd" clip-rule="evenodd" d="M17.5 2.00004C17.0398 2.00004 16.6667 2.37314 16.6667 2.83337C16.6667 3.29361 17.0398 3.66671 17.5 3.66671C17.9602 3.66671 18.3333 3.29361 18.3333 2.83337C18.3333 2.37314 17.9602 2.00004 17.5 2.00004ZM15 2.83337C15 1.45266 16.1193 0.333374 17.5 0.333374C18.8807 0.333374 20 1.45266 20 2.83337C20 4.21409 18.8807 5.33337 17.5 5.33337C16.1193 5.33337 15 4.21409 15 2.83337Z" fill="white"/>
<path fill-rule="evenodd" clip-rule="evenodd" d="M7.3902 4.91349L4.05687 10.7468L2.6098 9.91992L5.94313 4.08659L7.3902 4.91349Z" fill="white"/>
<path fill-rule="evenodd" clip-rule="evenodd" d="M8.98406 3.97946L12.3174 8.14613L11.0159 9.18729L7.68261 5.02062L8.98406 3.97946Z" fill="white"/>
<path fill-rule="evenodd" clip-rule="evenodd" d="M17.36 4.12896L14.0267 9.12896L12.64 8.20446L15.9733 3.20446L17.36 4.12896Z" fill="white"/>
</svg>
