<svg width="19" height="19" viewBox="0 0 19 19" fill="none" xmlns="http://www.w3.org/2000/svg">
<path d="M9.41666 3.33337C10.107 3.33337 10.6667 2.77373 10.6667 2.08337C10.6667 1.39302 10.107 0.833374 9.41666 0.833374C8.7263 0.833374 8.16666 1.39302 8.16666 2.08337C8.16666 2.77373 8.7263 3.33337 9.41666 3.33337Z" fill="white"/>
<path fill-rule="evenodd" clip-rule="evenodd" d="M13.2678 5.58932C12.2914 4.61301 10.7085 4.61301 9.73222 5.58932L1.25591 14.0656C0.279603 15.0419 0.279605 16.6249 1.25591 17.6012L1.39889 17.7441C2.3752 18.7205 3.95812 18.7204 4.93443 17.7441L13.4107 9.26783C14.387 8.29152 14.387 6.70861 13.4107 5.7323L13.2678 5.58932ZM10.9107 6.76783C11.2362 6.44239 11.7638 6.44239 12.0892 6.76783L12.2322 6.91081C12.5577 7.23625 12.5577 7.76388 12.2322 8.08932L10.6667 9.65489L9.34517 8.3334L10.9107 6.76783ZM8.16666 9.51191L9.48814 10.8334L3.75592 16.5656C3.43048 16.8911 2.90284 16.8911 2.5774 16.5656L2.43443 16.4227C2.10899 16.0972 2.10899 15.5696 2.43443 15.2441L8.16666 9.51191Z" fill="white"/>
<path d="M17.3333 12.5001C17.7936 12.5001 18.1667 12.127 18.1667 11.6667C18.1667 11.2065 17.7936 10.8334 17.3333 10.8334H16.5V10C16.5 9.5398 16.1269 9.16671 15.6667 9.16671C15.2064 9.16671 14.8333 9.5398 14.8333 10V10.8334H14C13.5398 10.8334 13.1667 11.2065 13.1667 11.6667C13.1667 12.127 13.5398 12.5001 14 12.5001H14.8333V13.3334C14.8333 13.7936 15.2064 14.1667 15.6667 14.1667C16.1269 14.1667 16.5 13.7936 16.5 13.3334V12.5001H17.3333Z" fill="white"/>
<path d="M18.1667 3.3334C18.1667 3.79364 17.7936 4.16673 17.3333 4.16673H16.5V5.00004C16.5 5.46028 16.1269 5.83337 15.6667 5.83337C15.2064 5.83337 14.8333 5.46028 14.8333 5.00004V4.16673H14C13.5398 4.16673 13.1667 3.79364 13.1667 3.3334C13.1667 2.87316 13.5398 2.50007 14 2.50007L14.8333 2.50007V1.66671C14.8333 1.20647 15.2064 0.833374 15.6667 0.833374C16.1269 0.833374 16.5 1.20647 16.5 1.66671V2.50007L17.3333 2.50007C17.7936 2.50007 18.1667 2.87316 18.1667 3.3334Z" fill="white"/>
</svg>
