<svg width="22" height="21" viewBox="0 0 22 21" fill="none" xmlns="http://www.w3.org/2000/svg">
<path fill-rule="evenodd" clip-rule="evenodd" d="M19.9998 6C19.9998 9.31371 17.3135 12 13.9998 12C10.6861 12 7.99982 9.31371 7.99982 6C7.99982 2.68629 10.6861 0 13.9998 0C17.3135 0 19.9998 2.68629 19.9998 6ZM17.9998 6C17.9998 8.20914 16.209 10 13.9998 10C11.7907 10 9.99982 8.20914 9.99982 6C9.99982 3.79086 11.7907 2 13.9998 2C16.209 2 17.9998 3.79086 17.9998 6Z" fill="#100E20"/>
<path d="M7.19875 2.07982C7.74 1.96995 8.0897 1.44212 7.97983 0.900873C7.86996 0.359627 7.34213 0.00992478 6.80088 0.119792C4.06178 0.675802 1.99982 3.09587 1.99982 5.99979C1.99982 8.9037 4.06178 11.3238 6.80088 11.8798C7.34213 11.9896 7.86996 11.6399 7.97983 11.0987C8.0897 10.5575 7.74 10.0296 7.19875 9.91975C5.37338 9.54922 3.99982 7.93379 3.99982 5.99979C3.99982 4.06578 5.37338 2.45035 7.19875 2.07982Z" fill="#100E20"/>
<path fill-rule="evenodd" clip-rule="evenodd" d="M8.69773 14.5735C9.93058 13.6272 11.6489 13 13.9999 13C16.3509 13 18.0692 13.6272 19.302 14.5736C20.5256 15.5128 21.1913 16.705 21.5523 17.7086C21.8701 18.592 21.6475 19.4567 21.1146 20.0695C20.6 20.6613 19.8209 21 18.9998 21H8.99985C8.17871 21 7.39961 20.6613 6.88502 20.0695C6.35218 19.4566 6.12958 18.5919 6.44735 17.7086C6.80838 16.705 7.47408 15.5128 8.69773 14.5735ZM9.91552 16.16C9.07338 16.8065 8.59826 17.6378 8.32929 18.3856C8.27316 18.5416 8.30404 18.6534 8.39429 18.7572C8.50279 18.882 8.7164 19 8.99985 19H18.9998C19.2833 19 19.4969 18.882 19.6054 18.7572C19.6956 18.6534 19.7265 18.5416 19.6704 18.3856C19.4014 17.6379 18.9263 16.8065 18.0842 16.16C17.2513 15.5207 15.9788 15 13.9999 15C12.0209 15 10.7485 15.5207 9.91552 16.16Z" fill="#100E20"/>
<path d="M2.25074 18.2769C2.45545 17.4886 2.80679 16.6598 3.38662 16.0404C3.9377 15.4517 4.74033 15 5.99982 15C6.5521 15 6.99982 14.5523 6.99982 14C6.99982 13.4477 6.5521 13 5.99982 13C4.17915 13 2.85035 13.6867 1.92652 14.6736C1.03143 15.6298 0.56437 16.8138 0.31496 17.7741C-0.16824 19.6347 1.41431 21 2.99979 21H3.76901C4.32129 21 4.76901 20.5523 4.76901 20C4.76901 19.4477 4.32129 19 3.76901 19H2.99979C2.71726 19 2.49227 18.8839 2.36435 18.7426C2.2485 18.6146 2.20242 18.4629 2.25074 18.2769Z" fill="#100E20"/>
</svg>
