<svg width="19" height="19" viewBox="0 0 19 19" fill="none" xmlns="http://www.w3.org/2000/svg">
<path fill-rule="evenodd" clip-rule="evenodd" d="M12.3989 2.607C11.2877 2.57151 10.1658 2.97821 9.31862 3.82539C8.29498 4.84904 7.9144 6.27283 8.18009 7.59627C8.27547 7.88564 8.20809 8.21692 7.97794 8.44707L2.10279 14.3222C2.10279 14.3222 2.09733 14.3277 2.08521 14.3427C2.07348 14.3571 2.05839 14.3771 2.04085 14.4026C2.00556 14.4541 1.96455 14.5223 1.92382 14.6047C1.84164 14.771 1.76947 14.9772 1.73896 15.2027C1.68217 15.6224 1.75857 16.1567 2.31821 16.7164C2.87785 17.276 3.41219 17.3524 3.83186 17.2956C4.05736 17.2651 4.26358 17.1929 4.42987 17.1108C4.51229 17.07 4.58045 17.029 4.63192 16.9937C4.65751 16.9762 4.67745 16.9611 4.69192 16.9494C4.70647 16.9376 4.71239 16.9317 4.71239 16.9317L10.5875 11.0566C10.8207 10.8234 11.1578 10.7573 11.4499 10.8584C12.7706 11.1203 14.19 10.7391 15.2112 9.71795C16.0584 8.87077 16.4651 7.74887 16.4296 6.63767L14.5564 8.51079C14.3485 8.71871 14.0464 8.80167 13.7615 8.72909L11.4884 8.15006C11.1927 8.07474 10.9618 7.84388 10.8865 7.54822L10.3075 5.27509C10.2349 4.99014 10.3179 4.68804 10.5258 4.48013L12.3989 2.607ZM11.4527 12.5484L5.89086 18.1103C5.57458 18.4266 4.89215 18.834 4.05535 18.9472C3.16076 19.0683 2.09528 18.8505 1.1397 17.8949C0.184114 16.9393 -0.033711 15.8738 0.0873407 14.9792C0.200573 14.1424 0.607993 13.46 0.924276 13.1437L6.48763 7.58036C6.24429 5.83263 6.79424 3.99275 8.14011 2.64688C9.82709 0.959903 12.2889 0.523393 14.3761 1.33245C14.6388 1.43426 14.8322 1.66189 14.8904 1.93753C14.9485 2.21317 14.8634 2.49952 14.6642 2.69871L12.0396 5.32327L12.3794 6.65715L13.7133 6.99692L16.3379 4.37236C16.5371 4.17316 16.8234 4.08809 17.099 4.14621C17.3747 4.20433 17.6023 4.39777 17.7041 4.66043C18.5132 6.74767 18.0767 9.20948 16.3897 10.8965C15.0429 12.2432 13.2015 12.793 11.4527 12.5484Z" fill="white"/>
<path d="M4.30606 15.9099C3.98062 16.2354 3.45299 16.2354 3.12755 15.9099C2.80211 15.5845 2.80211 15.0568 3.12755 14.7314C3.45299 14.406 3.98062 14.406 4.30606 14.7314C4.6315 15.0568 4.6315 15.5845 4.30606 15.9099Z" fill="white"/>
</svg>
