<svg width="19" height="18" viewBox="0 0 19 18" fill="none" xmlns="http://www.w3.org/2000/svg">
<path fill-rule="evenodd" clip-rule="evenodd" d="M18.0387 0.864116C18.2256 1.02245 18.3334 1.25501 18.3334 1.49997V11.5C18.3334 11.7447 18.2258 11.9771 18.0391 12.1355C17.8525 12.2938 17.6056 12.3621 17.3641 12.3221L9.63245 11.0442L11.6114 16.2014C11.7097 16.4576 11.6756 16.7459 11.5201 16.972C11.3647 17.1982 11.1078 17.3333 10.8334 17.3333H5.83337C5.41743 17.3333 5.06518 17.0266 5.00796 16.6146L4.18186 10.6666H3.33308C1.95241 10.6666 0.833374 9.54774 0.833374 8.16698V4.83317C0.833374 3.45238 1.95274 2.3333 3.33337 2.3333H7.43107L17.363 0.677971C17.6047 0.637699 17.8518 0.705779 18.0387 0.864116ZM6.66671 3.99997H3.33337C2.87306 3.99997 2.50004 4.37302 2.50004 4.83317V8.16698C2.50004 8.62718 2.87281 8.99997 3.33308 8.99997H6.66671V3.99997ZM7.4249 10.6666H5.86452L6.55897 15.6666H9.62103L7.72324 10.7209L7.4249 10.6666ZM8.33337 9.13782L8.47586 9.16373L16.6667 10.5176V2.48368L8.33337 3.87257V9.13782Z" fill="white"/>
</svg>
